<?xml version="1.0" encoding="UTF-8"?><svg id="Layer_2" xmlns="http://www.w3.org/2000/svg" xmlns:xlink="http://www.w3.org/1999/xlink" viewBox="0 0 4275.67 1759"><defs><style>.cls-1{fill:#fff;}.cls-2{fill:url(#Gradiente_sem_nome_28);}.cls-3{fill:url(#Gradiente_sem_nome_30);opacity:.44;}</style><linearGradient id="Gradiente_sem_nome_30" x1="0" y1="879.5" x2="1630.03" y2="879.5" gradientUnits="userSpaceOnUse"><stop offset="0" stop-color="aqua"/><stop offset=".31" stop-color="#f0f"/><stop offset=".65" stop-color="#ff0"/><stop offset="1" stop-color="#000"/></linearGradient><radialGradient id="Gradiente_sem_nome_28" cx="332.99" cy="1633.49" fx="332.99" fy="1633.49" r="1694.01" gradientUnits="userSpaceOnUse"><stop offset=".07" stop-color="#ff7022"/><stop offset=".93" stop-color="#d00"/></radialGradient></defs><g id="Camada_1"><g><g><g><path class="cls-1" d="M2411.45,476.57v-115.81h296.44v115.81l-46.67,19.01c-9.51,4.32-15.56,13.83-15.56,24.2v532.37h-225.57l-222.97-477.93v318.91c0,10.37,6.05,19.88,15.56,24.2l44.94,19.01v115.81h-294.71v-115.81l44.94-19.01c9.51-4.32,15.56-13.83,15.56-24.2v-373.35c0-10.37-6.05-19.88-15.56-24.2l-44.94-19.01v-115.81h288.66l221.25,474.47v-315.45c0-10.37-6.05-19.88-15.56-24.2l-45.8-19.01Z"/><path class="cls-1" d="M3226.42,919.92c0,7.78,5.19,14.69,12.1,18.15l47.53,20.74v93.34h-219.52v-50.13c-35.43,38.89-83.83,58.77-143.46,58.77-127.04,0-220.38-93.34-220.38-268.78s93.34-267.05,221.25-267.05c61.36,0,108.03,19.88,142.6,61.36v-52.72h159.88v386.32Zm-159.88-63.95v-120.13c-14.69-44.08-48.4-68.27-93.34-68.27-61.36,0-106.3,44.08-106.3,127.91s44.94,128.77,106.3,128.77c42.35,0,78.65-25.93,93.34-68.28Z"/><path class="cls-1" d="M3663.85,664.97c0-7.78-4.32-15.56-12.1-19.01l-46.67-19.88v-92.47h215.2v388.04c0,7.78,4.32,14.69,11.23,18.15l47.53,20.74v92.47h-215.2v-51.85c-31.98,36.3-74.32,61.36-133.09,61.36-120.13,0-184.95-73.46-184.95-216.06v-181.49c0-7.78-4.32-15.56-11.24-19.01l-46.67-19.88v-92.47h214.33v272.24c0,90.75,25.06,129.64,81.24,129.64,38.03,0,64.82-29.38,80.37-65.68v-204.83Z"/><path class="cls-1" d="M3953.63,532.74v-146.06h156.43v146.06h130.5v89.02l-130.5,25.93v178.03c0,59.63,22.47,88.15,55.31,88.15,20.74,0,45.8-16.42,72.6-26.79l17.28,138.28c-48.4,17.28-91.61,35.43-129.64,35.43-107.17,0-171.98-78.65-171.98-238.53v-174.58l-76.05-25.93v-89.02h76.05Z"/></g><g><path class="cls-1" d="M1961.08,1167.88v-7.13h45.41l71.32,149.3,70.84-149.3h45.41v7.13l-20.44,3.8c-2.85,.71-4.75,2.85-4.75,5.71v156.9c0,2.85,1.9,4.99,4.75,5.71l20.44,3.8v7.13h-63.24v-7.13l20.21-3.8c2.85-.71,4.75-2.85,4.75-5.71v-158.81l-71.32,150.01h-13.79l-71.08-150.01v158.81c0,2.85,1.9,5.23,4.75,5.71l19.97,3.8v7.13h-63.24v-7.13l20.44-3.8c2.85-.71,4.75-2.85,4.75-5.71v-156.9c0-2.85-1.9-4.99-4.75-5.71l-20.44-3.8Z"/><path class="cls-1" d="M2342.65,1336.91c0,2.14,1.43,3.8,3.57,4.04l21.63,1.9v8.08h-37.8v-28.53c-10.22,18.07-29.95,29.48-53.01,29.48-36.85,0-65.14-28.77-65.14-73.22s28.29-71.56,65.14-71.56c23.06,0,42.79,11.17,53.01,29.72v-29h12.6v129.09Zm-12.6-36.61v-41.84c-6.66-24.25-25.68-39.7-50.64-39.7-30.9,0-54.92,24.49-54.92,60.15s24.01,61.57,54.92,61.57c24.96,0,43.98-15.69,50.64-40.18Z"/><path class="cls-1" d="M2413.49,1340.71c2.14-.24,3.57-1.9,3.57-4.04v-114.35c0-2.14-1.43-3.8-3.57-3.8l-21.87-2.14v-8.08h37.8v48.5c10.7-33.04,33.52-53.01,69.42-48.97v12.6c-49.21-5.71-64.66,33.28-69.42,75.12v41.13c0,2.14,1.43,3.8,3.8,4.04l21.63,1.9v8.32h-63.24v-8.32l21.87-1.9Z"/><path class="cls-1" d="M2505.49,1168.83v-8.08h38.04v111.73h22.82l46.36-49.92c2.14-2.14,1.43-3.8-1.43-4.04l-21.16-1.9v-8.32h63.95v8.32l-17.12,1.9c-2.85,.24-5.94,1.9-8.08,4.04l-52.06,55.39,49.69,58.96c1.9,2.14,4.99,3.8,7.85,4.04l20.21,1.9v8.08h-32.33l-56.34-67.75h-22.35v67.75h-38.04v-8.08l20.68-1.9c2.85-.24,4.75-2.38,4.75-5.23v-159.76c0-2.85-1.9-4.99-4.75-5.23l-20.68-1.9Z"/><path class="cls-1" d="M2792.44,1278.43v9.27h-118.15c3.8,31.86,24.96,52.06,54.68,52.06,26.15,0,43.03-13.08,53.25-27.34l3.8,10.46c-12.6,15.69-29.48,28.05-58.72,28.05-38.27,0-66.33-28.05-66.33-71.79s29-70.61,66.33-70.61c42.79,0,65.14,30.43,65.14,69.89Zm-11.17-.95c0-32.57-17.83-58.24-53.73-58.24-32.57,0-53.01,25.68-53.73,58.24h107.46Z"/><path class="cls-1" d="M2828.1,1208.06v-44.93h12.6v44.93h52.54v10.7h-52.54v73.94c0,35.42,5.71,48.26,23.3,48.26,7.85,0,17.35-2.14,30.19-6.42l2.62,11.89c-14.74,4.28-26.15,6.89-35.66,6.89-24.49,0-33.04-17.12-33.04-60.86v-73.7h-26.63v-10.7h26.63Z"/><path class="cls-1" d="M2952.68,1335.48c0,2.85,1.9,5.23,4.99,5.47l20.45,1.66v8.32h-63.47v-8.32l20.45-1.66c3.09-.24,4.99-2.61,4.99-5.47v-111.97c0-3.09-1.9-5.47-4.99-5.71l-20.45-1.66v-8.32h38.04v127.66Zm3.33-162.61c0,7.61-5.71,11.41-14.03,11.41s-14.03-3.8-14.03-11.41,5.71-11.89,14.03-11.89,14.03,4.04,14.03,11.89Z"/><path class="cls-1" d="M3138.58,1336.67c0,2.14,1.43,3.8,3.57,4.04l21.63,1.9v8.32h-37.8v-82.49c0-34-15.69-50.64-42.08-50.64-24.25,0-38.04,20.21-43.98,39.94v78.93c0,2.14,1.43,3.8,3.57,4.04l21.87,1.9v8.32h-63.47v-8.32l21.87-1.9c2.14-.24,3.57-1.9,3.57-4.04v-114.35c0-2.38-1.43-3.8-3.57-4.04l-21.87-1.9v-8.32h38.04v28.29c8.8-15.93,23.06-29.48,46.12-29.48,32.33,0,52.54,20.44,52.54,59.67v70.13Z"/><path class="cls-1" d="M3214.66,1291.98c-9.99-7.85-15.45-19.26-15.45-34.95,0-33.04,19.97-49.21,56.11-48.97l79.4,.48v10.94l-45.88-.48c13.31,6.66,20.21,20.21,20.21,38.04,0,27.81-18.78,46.6-53.25,46.6-12.6,0-23.06-2.38-31.38-6.66-4.99,8.8-4.99,19.97,0,28.29,8.56-1.66,18.07-2.61,28.77-2.61,38.51,0,65.61,10.22,65.61,36.14,0,29.24-28.05,39.46-65.38,39.46s-65.85-10.22-65.85-39.46c0-16.17,9.98-25.44,25.67-30.91-5.94-11.17-5.47-25.91,1.43-35.9Zm38.75,41.37c-28.29,0-52.78,4.75-52.78,26.15s24.49,28.29,52.78,28.29,52.3-6.66,52.3-28.29c0-18.31-19.97-26.15-52.3-26.15Zm1.9-115.06c-29.24,0-43.74,12.84-43.74,38.75,0,24.25,19.02,36.37,43.74,36.37,28.05,0,41.37-16.64,41.37-36.37,0-22.82-11.65-37.8-41.37-38.75Z"/><path class="cls-1" d="M3432.42,1339.76c2.85-.71,4.75-2.85,4.75-5.71v-156.67c0-2.85-1.9-4.99-4.75-5.71l-20.44-3.8v-7.13h86.3c51.11,0,90.34,31.86,90.34,94.62s-39.23,95.57-90.34,95.57h-86.3v-7.37l20.44-3.8Zm18.07-167.13v166.41h47.78c43.98,0,77.02-28.05,77.02-83.68s-33.04-82.73-77.02-82.73h-47.78Z"/><path class="cls-1" d="M3644.48,1335.48c0,2.85,1.9,5.23,4.99,5.47l20.45,1.66v8.32h-63.47v-8.32l20.44-1.66c3.09-.24,4.99-2.61,4.99-5.47v-111.97c0-3.09-1.9-5.47-4.99-5.71l-20.44-1.66v-8.32h38.04v127.66Zm3.33-162.61c0,7.61-5.71,11.41-14.03,11.41s-14.03-3.8-14.03-11.41,5.71-11.89,14.03-11.89,14.03,4.04,14.03,11.89Z"/><path class="cls-1" d="M3720.79,1291.98c-9.99-7.85-15.45-19.26-15.45-34.95,0-33.04,19.97-49.21,56.11-48.97l79.4,.48v10.94l-45.88-.48c13.31,6.66,20.21,20.21,20.21,38.04,0,27.81-18.78,46.6-53.25,46.6-12.6,0-23.06-2.38-31.38-6.66-4.99,8.8-4.99,19.97,0,28.29,8.56-1.66,18.07-2.61,28.77-2.61,38.51,0,65.61,10.22,65.61,36.14,0,29.24-28.05,39.46-65.38,39.46s-65.85-10.22-65.85-39.46c0-16.17,9.98-25.44,25.67-30.91-5.94-11.17-5.47-25.91,1.43-35.9Zm38.75,41.37c-28.29,0-52.78,4.75-52.78,26.15s24.49,28.29,52.78,28.29,52.3-6.66,52.3-28.29c0-18.31-19.97-26.15-52.3-26.15Zm1.9-115.06c-29.24,0-43.74,12.84-43.74,38.75,0,24.25,19.02,36.37,43.74,36.37,28.05,0,41.37-16.64,41.37-36.37,0-22.82-11.65-37.8-41.37-38.75Z"/><path class="cls-1" d="M3896.71,1335.48c0,2.85,1.9,5.23,4.99,5.47l20.45,1.66v8.32h-63.47v-8.32l20.45-1.66c3.09-.24,4.99-2.61,4.99-5.47v-111.97c0-3.09-1.9-5.47-4.99-5.71l-20.45-1.66v-8.32h38.04v127.66Zm3.33-162.61c0,7.61-5.71,11.41-14.03,11.41s-14.03-3.8-14.03-11.41,5.71-11.89,14.03-11.89,14.03,4.04,14.03,11.89Z"/><path class="cls-1" d="M3956.62,1208.06v-44.93h12.6v44.93h52.54v10.7h-52.54v73.94c0,35.42,5.71,48.26,23.3,48.26,7.84,0,17.35-2.14,30.19-6.42l2.61,11.89c-14.74,4.28-26.15,6.89-35.66,6.89-24.49,0-33.04-17.12-33.04-60.86v-73.7h-26.63v-10.7h26.63Z"/><path class="cls-1" d="M4162.74,1336.91c0,2.14,1.43,3.8,3.57,4.04l21.63,1.9v8.08h-37.8v-28.53c-10.22,18.07-29.95,29.48-53.01,29.48-36.85,0-65.14-28.77-65.14-73.22s28.29-71.56,65.14-71.56c23.06,0,42.79,11.17,53.01,29.72v-29h12.6v129.09Zm-12.6-36.61v-41.84c-6.66-24.25-25.67-39.7-50.64-39.7-30.91,0-54.92,24.49-54.92,60.15s24.01,61.57,54.92,61.57c24.96,0,43.98-15.69,50.64-40.18Z"/><path class="cls-1" d="M4211.72,1169.07v-8.32h38.27v174.73c0,2.85,1.9,4.99,4.75,5.23l20.92,1.9v8.32h-63.95v-8.32l20.92-1.9c2.85-.24,4.75-2.38,4.75-5.23v-159.28c0-2.85-1.9-4.99-4.75-5.23l-20.92-1.9Z"/></g></g><g><path class="cls-3" d="M1630.03,1120.16v-481.32c0-142.26-75.89-273.71-199.09-344.84L1014.11,53.35c-123.2-71.13-274.98-71.13-398.18,0L199.09,294.01C75.89,365.13,0,496.58,0,638.84v481.32C0,1262.42,75.89,1393.87,199.09,1464.99l416.83,240.66c123.2,71.13,274.98,71.13,398.18,0l416.83-240.66c123.2-71.13,199.09-202.58,199.09-344.84Z"/><path class="cls-2" d="M1630.03,1120.16v-481.32c0-142.26-75.89-273.71-199.09-344.84L1014.11,53.35c-123.2-71.13-274.98-71.13-398.18,0L199.09,294.01C75.89,365.13,0,496.58,0,638.84v481.32c0,142.26,75.89,273.71,199.09,344.84l416.83,240.66c123.2,71.13,274.98,71.13,398.18,0l416.83-240.66c123.2-71.13,199.09-202.58,199.09-344.84Z"/><path class="cls-1" d="M1373.41,348.69l-377.9-218.18c-111.69-64.48-249.3-64.48-360.99,0l-377.9,218.18c-111.69,64.48-180.5,183.66-180.5,312.63v436.36c0,128.97,68.8,248.14,180.5,312.63l377.9,218.18c111.69,64.48,249.3,64.48,360.99,0l377.9-218.18c111.69-64.48,180.5-183.66,180.5-312.63v-436.36c0-128.97-68.8-248.14-180.5-312.63Zm106.23,727.06c0,116.01-61.89,223.2-162.35,281.21l-339.92,196.25c-100.47,58-224.24,58-324.71,0l-339.92-196.25c-100.47-58-162.35-165.2-162.35-281.21v-392.5c0-116.01,61.89-223.2,162.35-281.21l339.92-196.25c79.97-46.17,174.7-55.59,260.69-28.26,45.04,39.22,84.22,84,117.17,134.53,61.55,94.39,96.33,197.9,105.23,310.13,2.89,36.45,2.5,72.91-.9,109.35-3.17,33.95-8.78,67.45-17.21,100.47-19.18,75.18-50.91,144.67-94.35,208.95-28.64,42.38-63.83,78-106.72,105.86-50.53,32.82-105.8,52.27-165.74,58.86-39.57,4.36-78.75,2.3-117.65-5.58-46.26-9.37-89.26-27-129.2-52.13-64.96-40.88-99.73-100.21-105.52-176.19-3.41-44.76,7.11-87,28.78-126.39,8.44-15.35,18.41-29.56,31.86-40.93,38.8-32.76,83-40.8,131.4-27.62,17.11,4.66,33.06,12.2,46.59,24,32.95,28.74,39.72,79.95,12.93,118.08-13.67,19.46-33.76,26.55-57.34,23.76-7.35-.87-14.08-3.72-21.58-6.46,3.91,4.07,8.05,6.55,12.32,8.79,29.18,15.3,65.78,8.12,88.04-17.79,28.52-33.18,36.15-71.43,25.48-113.36-7.67-30.14-25.49-53.49-50.29-71.96-46.62-34.74-98.94-47.37-155.96-38.78-56.02,8.43-101.41,36.42-136.22,80.77-58.81,74.92-80.93,160.09-68.42,254.31,5.81,43.7,20.25,84.53,42.26,122.71,24.33,42.2,56.52,77.27,95.41,106.51,78.15,58.75,165.85,93.16,262.9,103.77,38.84,4.25,77.71,3.69,116.57-.85,46.42-5.43,91.44-16.36,134.87-33.57,99.13-39.29,179.43-102.69,242.17-188.84,57.63-79.14,100.28-165.52,127.22-259.62,13.5-47.15,22.71-95.15,27.37-144.02,1.46-15.37,2.42-30.75,2.98-46.16,.2-6.38,.07-53.62,.05-55.45-1.32-88.68-17.2-173.78-46.39-255.53l25.81,14.9c100.47,58,162.35,165.2,162.35,281.21v392.5Z"/></g></g></g></svg>